<svg xmlns="http://www.w3.org/2000/svg" width="1700" height="1200" viewBox="0 0 1700 1200">
<style>text{font-family:Arial,sans-serif;} .num{font-size:12px}.sym{font-size:24px;font-weight:bold}.name{font-size:10px}.mass{font-size:11px}</style>
<text x="850.0" y="30" text-anchor="middle" font-size="28" font-weight="bold" fill="#d5baff" stroke="#333">Periodic Table of the Elements</text>
<rect x="40" y="60" width="86" height="86" fill="#d5baff" stroke="#333"/>
<text class="num" x="46" y="76">1</text>
<text class="sym" x="83.0" y="105" text-anchor="middle">H</text>
<text class="name" x="83.0" y="122" text-anchor="middle">Hydrogen</text>
<text class="mass" x="83.0" y="138" text-anchor="middle">1.008</text>
<rect x="1570" y="60" width="86" height="86" fill="#ffd6ff" stroke="#333"/>
<text class="num" x="1576" y="76">2</text>
<text class="sym" x="1613.0" y="105" text-anchor="middle">He</text>
<text class="name" x="1613.0" y="122" text-anchor="middle">Helium</text>
<text class="mass" x="1613.0" y="138" text-anchor="middle">4.0026</text>
<rect x="40" y="150" width="86" height="86" fill="#ffb3ba" stroke="#333"/>
<text class="num" x="46" y="166">3</text>
<text class="sym" x="83.0" y="195" text-anchor="middle">Li</text>
<text class="name" x="83.0" y="212" text-anchor="middle">Lithium</text>
<text class="mass" x="83.0" y="228" text-anchor="middle">6.94</text>
<rect x="130" y="150" width="86" height="86" fill="#ffdfba" stroke="#333"/>
<text class="num" x="136" y="166">4</text>
<text class="sym" x="173.0" y="195" text-anchor="middle">Be</text>
<text class="name" x="173.0" y="212" text-anchor="middle">Beryllium</text>
<text class="mass" x="173.0" y="228" text-anchor="middle">9.0122</text>
<rect x="1120" y="150" width="86" height="86" fill="#bae1ff" stroke="#333"/>
<text class="num" x="1126" y="166">5</text>
<text class="sym" x="1163.0" y="195" text-anchor="middle">B</text>
<text class="name" x="1163.0" y="212" text-anchor="middle">Boron</text>
<text class="mass" x="1163.0" y="228" text-anchor="middle">10.81</text>
<rect x="1210" y="150" width="86" height="86" fill="#d5baff" stroke="#333"/>
<text class="num" x="1216" y="166">6</text>
<text class="sym" x="1253.0" y="195" text-anchor="middle">C</text>
<text class="name" x="1253.0" y="212" text-anchor="middle">Carbon</text>
<text class="mass" x="1253.0" y="228" text-anchor="middle">12.011</text>
<rect x="1300" y="150" width="86" height="86" fill="#d5baff" stroke="#333"/>
<text class="num" x="1306" y="166">7</text>
<text class="sym" x="1343.0" y="195" text-anchor="middle">N</text>
<text class="name" x="1343.0" y="212" text-anchor="middle">Nitrogen</text>
<text class="mass" x="1343.0" y="228" text-anchor="middle">14.007</text>
<rect x="1390" y="150" width="86" height="86" fill="#d5baff" stroke="#333"/>
<text class="num" x="1396" y="166">8</text>
<text class="sym" x="1433.0" y="195" text-anchor="middle">O</text>
<text class="name" x="1433.0" y="212" text-anchor="middle">Oxygen</text>
<text class="mass" x="1433.0" y="228" text-anchor="middle">15.999</text>
<rect x="1480" y="150" width="86" height="86" fill="#c9c9ff" stroke="#333"/>
<text class="num" x="1486" y="166">9</text>
<text class="sym" x="1523.0" y="195" text-anchor="middle">F</text>
<text class="name" x="1523.0" y="212" text-anchor="middle">Fluorine</text>
<text class="mass" x="1523.0" y="228" text-anchor="middle">18.998</text>
<rect x="1570" y="150" width="86" height="86" fill="#ffd6ff" stroke="#333"/>
<text class="num" x="1576" y="166">10</text>
<text class="sym" x="1613.0" y="195" text-anchor="middle">Ne</text>
<text class="name" x="1613.0" y="212" text-anchor="middle">Neon</text>
<text class="mass" x="1613.0" y="228" text-anchor="middle">20.18</text>
<rect x="40" y="240" width="86" height="86" fill="#ffb3ba" stroke="#333"/>
<text class="num" x="46" y="256">11</text>
<text class="sym" x="83.0" y="285" text-anchor="middle">Na</text>
<text class="name" x="83.0" y="302" text-anchor="middle">Sodium</text>
<text class="mass" x="83.0" y="318" text-anchor="middle">22.99</text>
<rect x="130" y="240" width="86" height="86" fill="#ffdfba" stroke="#333"/>
<text class="num" x="136" y="256">12</text>
<text class="sym" x="173.0" y="285" text-anchor="middle">Mg</text>
<text class="name" x="173.0" y="302" text-anchor="middle">Magnesium</text>
<text class="mass" x="173.0" y="318" text-anchor="middle">24.305</text>
<rect x="1120" y="240" width="86" height="86" fill="#baffc9" stroke="#333"/>
<text class="num" x="1126" y="256">13</text>
<text class="sym" x="1163.0" y="285" text-anchor="middle">Al</text>
<text class="name" x="1163.0" y="302" text-anchor="middle">Aluminium</text>
<text class="mass" x="1163.0" y="318" text-anchor="middle">26.982</text>
<rect x="1210" y="240" width="86" height="86" fill="#bae1ff" stroke="#333"/>
<text class="num" x="1216" y="256">14</text>
<text class="sym" x="1253.0" y="285" text-anchor="middle">Si</text>
<text class="name" x="1253.0" y="302" text-anchor="middle">Silicon</text>
<text class="mass" x="1253.0" y="318" text-anchor="middle">28.085</text>
<rect x="1300" y="240" width="86" height="86" fill="#d5baff" stroke="#333"/>
<text class="num" x="1306" y="256">15</text>
<text class="sym" x="1343.0" y="285" text-anchor="middle">P</text>
<text class="name" x="1343.0" y="302" text-anchor="middle">Phosphorus</text>
<text class="mass" x="1343.0" y="318" text-anchor="middle">30.974</text>
<rect x="1390" y="240" width="86" height="86" fill="#d5baff" stroke="#333"/>
<text class="num" x="1396" y="256">16</text>
<text class="sym" x="1433.0" y="285" text-anchor="middle">S</text>
<text class="name" x="1433.0" y="302" text-anchor="middle">Sulfur</text>
<text class="mass" x="1433.0" y="318" text-anchor="middle">32.06</text>
<rect x="1480" y="240" width="86" height="86" fill="#c9c9ff" stroke="#333"/>
<text class="num" x="1486" y="256">17</text>
<text class="sym" x="1523.0" y="285" text-anchor="middle">Cl</text>
<text class="name" x="1523.0" y="302" text-anchor="middle">Chlorine</text>
<text class="mass" x="1523.0" y="318" text-anchor="middle">35.45</text>
<rect x="1570" y="240" width="86" height="86" fill="#ffd6ff" stroke="#333"/>
<text class="num" x="1576" y="256">18</text>
<text class="sym" x="1613.0" y="285" text-anchor="middle">Ar</text>
<text class="name" x="1613.0" y="302" text-anchor="middle">Argon</text>
<text class="mass" x="1613.0" y="318" text-anchor="middle">39.948</text>
<rect x="40" y="330" width="86" height="86" fill="#ffb3ba" stroke="#333"/>
<text class="num" x="46" y="346">19</text>
<text class="sym" x="83.0" y="375" text-anchor="middle">K</text>
<text class="name" x="83.0" y="392" text-anchor="middle">Potassium</text>
<text class="mass" x="83.0" y="408" text-anchor="middle">39.098</text>
<rect x="130" y="330" width="86" height="86" fill="#ffdfba" stroke="#333"/>
<text class="num" x="136" y="346">20</text>
<text class="sym" x="173.0" y="375" text-anchor="middle">Ca</text>
<text class="name" x="173.0" y="392" text-anchor="middle">Calcium</text>
<text class="mass" x="173.0" y="408" text-anchor="middle">40.078</text>
<rect x="220" y="330" width="86" height="86" fill="#ffffba" stroke="#333"/>
<text class="num" x="226" y="346">21</text>
<text class="sym" x="263.0" y="375" text-anchor="middle">Sc</text>
<text class="name" x="263.0" y="392" text-anchor="middle">Sc</text>
<text class="mass" x="263.0" y="408" text-anchor="middle">21.0</text>
<rect x="310" y="330" width="86" height="86" fill="#ffffba" stroke="#333"/>
<text class="num" x="316" y="346">22</text>
<text class="sym" x="353.0" y="375" text-anchor="middle">Ti</text>
<text class="name" x="353.0" y="392" text-anchor="middle">Ti</text>
<text class="mass" x="353.0" y="408" text-anchor="middle">22.0</text>
<rect x="400" y="330" width="86" height="86" fill="#ffffba" stroke="#333"/>
<text class="num" x="406" y="346">23</text>
<text class="sym" x="443.0" y="375" text-anchor="middle">V</text>
<text class="name" x="443.0" y="392" text-anchor="middle">V</text>
<text class="mass" x="443.0" y="408" text-anchor="middle">23.0</text>
<rect x="490" y="330" width="86" height="86" fill="#ffffba" stroke="#333"/>
<text class="num" x="496" y="346">24</text>
<text class="sym" x="533.0" y="375" text-anchor="middle">Cr</text>
<text class="name" x="533.0" y="392" text-anchor="middle">Cr</text>
<text class="mass" x="533.0" y="408" text-anchor="middle">24.0</text>
<rect x="580" y="330" width="86" height="86" fill="#ffffba" stroke="#333"/>
<text class="num" x="586" y="346">25</text>
<text class="sym" x="623.0" y="375" text-anchor="middle">Mn</text>
<text class="name" x="623.0" y="392" text-anchor="middle">Mn</text>
<text class="mass" x="623.0" y="408" text-anchor="middle">25.0</text>
<rect x="670" y="330" width="86" height="86" fill="#ffffba" stroke="#333"/>
<text class="num" x="676" y="346">26</text>
<text class="sym" x="713.0" y="375" text-anchor="middle">Fe</text>
<text class="name" x="713.0" y="392" text-anchor="middle">Fe</text>
<text class="mass" x="713.0" y="408" text-anchor="middle">26.0</text>
<rect x="760" y="330" width="86" height="86" fill="#ffffba" stroke="#333"/>
<text class="num" x="766" y="346">27</text>
<text class="sym" x="803.0" y="375" text-anchor="middle">Co</text>
<text class="name" x="803.0" y="392" text-anchor="middle">Co</text>
<text class="mass" x="803.0" y="408" text-anchor="middle">27.0</text>
<rect x="850" y="330" width="86" height="86" fill="#ffffba" stroke="#333"/>
<text class="num" x="856" y="346">28</text>
<text class="sym" x="893.0" y="375" text-anchor="middle">Ni</text>
<text class="name" x="893.0" y="392" text-anchor="middle">Ni</text>
<text class="mass" x="893.0" y="408" text-anchor="middle">28.0</text>
<rect x="940" y="330" width="86" height="86" fill="#ffffba" stroke="#333"/>
<text class="num" x="946" y="346">29</text>
<text class="sym" x="983.0" y="375" text-anchor="middle">Cu</text>
<text class="name" x="983.0" y="392" text-anchor="middle">Cu</text>
<text class="mass" x="983.0" y="408" text-anchor="middle">29.0</text>
<rect x="1030" y="330" width="86" height="86" fill="#ffffba" stroke="#333"/>
<text class="num" x="1036" y="346">30</text>
<text class="sym" x="1073.0" y="375" text-anchor="middle">Zn</text>
<text class="name" x="1073.0" y="392" text-anchor="middle">Zn</text>
<text class="mass" x="1073.0" y="408" text-anchor="middle">30.0</text>
<rect x="1120" y="330" width="86" height="86" fill="#baffc9" stroke="#333"/>
<text class="num" x="1126" y="346">31</text>
<text class="sym" x="1163.0" y="375" text-anchor="middle">Ga</text>
<text class="name" x="1163.0" y="392" text-anchor="middle">Ga</text>
<text class="mass" x="1163.0" y="408" text-anchor="middle">31.0</text>
<rect x="1210" y="330" width="86" height="86" fill="#bae1ff" stroke="#333"/>
<text class="num" x="1216" y="346">32</text>
<text class="sym" x="1253.0" y="375" text-anchor="middle">Ge</text>
<text class="name" x="1253.0" y="392" text-anchor="middle">Ge</text>
<text class="mass" x="1253.0" y="408" text-anchor="middle">32.0</text>
<rect x="1300" y="330" width="86" height="86" fill="#bae1ff" stroke="#333"/>
<text class="num" x="1306" y="346">33</text>
<text class="sym" x="1343.0" y="375" text-anchor="middle">As</text>
<text class="name" x="1343.0" y="392" text-anchor="middle">As</text>
<text class="mass" x="1343.0" y="408" text-anchor="middle">33.0</text>
<rect x="1390" y="330" width="86" height="86" fill="#d5baff" stroke="#333"/>
<text class="num" x="1396" y="346">34</text>
<text class="sym" x="1433.0" y="375" text-anchor="middle">Se</text>
<text class="name" x="1433.0" y="392" text-anchor="middle">Se</text>
<text class="mass" x="1433.0" y="408" text-anchor="middle">34.0</text>
<rect x="1480" y="330" width="86" height="86" fill="#c9c9ff" stroke="#333"/>
<text class="num" x="1486" y="346">35</text>
<text class="sym" x="1523.0" y="375" text-anchor="middle">Br</text>
<text class="name" x="1523.0" y="392" text-anchor="middle">Br</text>
<text class="mass" x="1523.0" y="408" text-anchor="middle">35.0</text>
<rect x="1570" y="330" width="86" height="86" fill="#ffd6ff" stroke="#333"/>
<text class="num" x="1576" y="346">36</text>
<text class="sym" x="1613.0" y="375" text-anchor="middle">Kr</text>
<text class="name" x="1613.0" y="392" text-anchor="middle">Kr</text>
<text class="mass" x="1613.0" y="408" text-anchor="middle">36.0</text>
<rect x="40" y="420" width="86" height="86" fill="#ffffba" stroke="#333"/>
<text class="num" x="46" y="436">37</text>
<text class="sym" x="83.0" y="465" text-anchor="middle">Rb</text>
<text class="name" x="83.0" y="482" text-anchor="middle">Rb</text>
<text class="mass" x="83.0" y="498" text-anchor="middle">37.0</text>
<rect x="130" y="420" width="86" height="86" fill="#ffffba" stroke="#333"/>
<text class="num" x="136" y="436">38</text>
<text class="sym" x="173.0" y="465" text-anchor="middle">Sr</text>
<text class="name" x="173.0" y="482" text-anchor="middle">Sr</text>
<text class="mass" x="173.0" y="498" text-anchor="middle">38.0</text>
<rect x="220" y="420" width="86" height="86" fill="#ffffba" stroke="#333"/>
<text class="num" x="226" y="436">39</text>
<text class="sym" x="263.0" y="465" text-anchor="middle">Y</text>
<text class="name" x="263.0" y="482" text-anchor="middle">Y</text>
<text class="mass" x="263.0" y="498" text-anchor="middle">39.0</text>
<rect x="310" y="420" width="86" height="86" fill="#ffffba" stroke="#333"/>
<text class="num" x="316" y="436">40</text>
<text class="sym" x="353.0" y="465" text-anchor="middle">Zr</text>
<text class="name" x="353.0" y="482" text-anchor="middle">Zr</text>
<text class="mass" x="353.0" y="498" text-anchor="middle">40.0</text>
<rect x="400" y="420" width="86" height="86" fill="#ffffba" stroke="#333"/>
<text class="num" x="406" y="436">41</text>
<text class="sym" x="443.0" y="465" text-anchor="middle">Nb</text>
<text class="name" x="443.0" y="482" text-anchor="middle">Nb</text>
<text class="mass" x="443.0" y="498" text-anchor="middle">41.0</text>
<rect x="490" y="420" width="86" height="86" fill="#ffffba" stroke="#333"/>
<text class="num" x="496" y="436">42</text>
<text class="sym" x="533.0" y="465" text-anchor="middle">Mo</text>
<text class="name" x="533.0" y="482" text-anchor="middle">Mo</text>
<text class="mass" x="533.0" y="498" text-anchor="middle">42.0</text>
<rect x="580" y="420" width="86" height="86" fill="#ffffba" stroke="#333"/>
<text class="num" x="586" y="436">43</text>
<text class="sym" x="623.0" y="465" text-anchor="middle">Tc</text>
<text class="name" x="623.0" y="482" text-anchor="middle">Tc</text>
<text class="mass" x="623.0" y="498" text-anchor="middle">43.0</text>
<rect x="670" y="420" width="86" height="86" fill="#ffffba" stroke="#333"/>
<text class="num" x="676" y="436">44</text>
<text class="sym" x="713.0" y="465" text-anchor="middle">Ru</text>
<text class="name" x="713.0" y="482" text-anchor="middle">Ru</text>
<text class="mass" x="713.0" y="498" text-anchor="middle">44.0</text>
<rect x="760" y="420" width="86" height="86" fill="#ffffba" stroke="#333"/>
<text class="num" x="766" y="436">45</text>
<text class="sym" x="803.0" y="465" text-anchor="middle">Rh</text>
<text class="name" x="803.0" y="482" text-anchor="middle">Rh</text>
<text class="mass" x="803.0" y="498" text-anchor="middle">45.0</text>
<rect x="850" y="420" width="86" height="86" fill="#ffffba" stroke="#333"/>
<text class="num" x="856" y="436">46</text>
<text class="sym" x="893.0" y="465" text-anchor="middle">Pd</text>
<text class="name" x="893.0" y="482" text-anchor="middle">Pd</text>
<text class="mass" x="893.0" y="498" text-anchor="middle">46.0</text>
<rect x="940" y="420" width="86" height="86" fill="#baffc9" stroke="#333"/>
<text class="num" x="946" y="436">47</text>
<text class="sym" x="983.0" y="465" text-anchor="middle">Ag</text>
<text class="name" x="983.0" y="482" text-anchor="middle">Ag</text>
<text class="mass" x="983.0" y="498" text-anchor="middle">47.0</text>
<rect x="1030" y="420" width="86" height="86" fill="#bae1ff" stroke="#333"/>
<text class="num" x="1036" y="436">48</text>
<text class="sym" x="1073.0" y="465" text-anchor="middle">Cd</text>
<text class="name" x="1073.0" y="482" text-anchor="middle">Cd</text>
<text class="mass" x="1073.0" y="498" text-anchor="middle">48.0</text>
<rect x="1120" y="420" width="86" height="86" fill="#bae1ff" stroke="#333"/>
<text class="num" x="1126" y="436">49</text>
<text class="sym" x="1163.0" y="465" text-anchor="middle">In</text>
<text class="name" x="1163.0" y="482" text-anchor="middle">In</text>
<text class="mass" x="1163.0" y="498" text-anchor="middle">49.0</text>
<rect x="1210" y="420" width="86" height="86" fill="#d5baff" stroke="#333"/>
<text class="num" x="1216" y="436">50</text>
<text class="sym" x="1253.0" y="465" text-anchor="middle">Sn</text>
<text class="name" x="1253.0" y="482" text-anchor="middle">Sn</text>
<text class="mass" x="1253.0" y="498" text-anchor="middle">50.0</text>
<rect x="1300" y="420" width="86" height="86" fill="#c9c9ff" stroke="#333"/>
<text class="num" x="1306" y="436">51</text>
<text class="sym" x="1343.0" y="465" text-anchor="middle">Sb</text>
<text class="name" x="1343.0" y="482" text-anchor="middle">Sb</text>
<text class="mass" x="1343.0" y="498" text-anchor="middle">51.0</text>
<rect x="1390" y="420" width="86" height="86" fill="#ffd6ff" stroke="#333"/>
<text class="num" x="1396" y="436">52</text>
<text class="sym" x="1433.0" y="465" text-anchor="middle">Te</text>
<text class="name" x="1433.0" y="482" text-anchor="middle">Te</text>
<text class="mass" x="1433.0" y="498" text-anchor="middle">52.0</text>
<rect x="1480" y="420" width="86" height="86" fill="#ffffba" stroke="#333"/>
<text class="num" x="1486" y="436">53</text>
<text class="sym" x="1523.0" y="465" text-anchor="middle">I</text>
<text class="name" x="1523.0" y="482" text-anchor="middle">I</text>
<text class="mass" x="1523.0" y="498" text-anchor="middle">53.0</text>
<rect x="1570" y="420" width="86" height="86" fill="#ffffba" stroke="#333"/>
<text class="num" x="1576" y="436">54</text>
<text class="sym" x="1613.0" y="465" text-anchor="middle">Xe</text>
<text class="name" x="1613.0" y="482" text-anchor="middle">Xe</text>
<text class="mass" x="1613.0" y="498" text-anchor="middle">54.0</text>
<rect x="40" y="510" width="86" height="86" fill="#ffffba" stroke="#333"/>
<text class="num" x="46" y="526">55</text>
<text class="sym" x="83.0" y="555" text-anchor="middle">Cs</text>
<text class="name" x="83.0" y="572" text-anchor="middle">Cs</text>
<text class="mass" x="83.0" y="588" text-anchor="middle">55.0</text>
<rect x="130" y="510" width="86" height="86" fill="#ffffba" stroke="#333"/>
<text class="num" x="136" y="526">56</text>
<text class="sym" x="173.0" y="555" text-anchor="middle">Ba</text>
<text class="name" x="173.0" y="572" text-anchor="middle">Ba</text>
<text class="mass" x="173.0" y="588" text-anchor="middle">56.0</text>
<rect x="220" y="510" width="86" height="86" fill="#ffffba" stroke="#333"/>
<text class="num" x="226" y="526">57</text>
<text class="sym" x="263.0" y="555" text-anchor="middle">La</text>
<text class="name" x="263.0" y="572" text-anchor="middle">La</text>
<text class="mass" x="263.0" y="588" text-anchor="middle">57.0</text>
<rect x="310" y="510" width="86" height="86" fill="#ffffba" stroke="#333"/>
<text class="num" x="316" y="526">58</text>
<text class="sym" x="353.0" y="555" text-anchor="middle">Ce</text>
<text class="name" x="353.0" y="572" text-anchor="middle">Ce</text>
<text class="mass" x="353.0" y="588" text-anchor="middle">58.0</text>
<rect x="400" y="510" width="86" height="86" fill="#ffffba" stroke="#333"/>
<text class="num" x="406" y="526">59</text>
<text class="sym" x="443.0" y="555" text-anchor="middle">Pr</text>
<text class="name" x="443.0" y="572" text-anchor="middle">Pr</text>
<text class="mass" x="443.0" y="588" text-anchor="middle">59.0</text>
<rect x="490" y="510" width="86" height="86" fill="#ffffba" stroke="#333"/>
<text class="num" x="496" y="526">60</text>
<text class="sym" x="533.0" y="555" text-anchor="middle">Nd</text>
<text class="name" x="533.0" y="572" text-anchor="middle">Nd</text>
<text class="mass" x="533.0" y="588" text-anchor="middle">60.0</text>
<rect x="580" y="510" width="86" height="86" fill="#ffffba" stroke="#333"/>
<text class="num" x="586" y="526">61</text>
<text class="sym" x="623.0" y="555" text-anchor="middle">Pm</text>
<text class="name" x="623.0" y="572" text-anchor="middle">Pm</text>
<text class="mass" x="623.0" y="588" text-anchor="middle">61.0</text>
<rect x="670" y="510" width="86" height="86" fill="#ffffba" stroke="#333"/>
<text class="num" x="676" y="526">62</text>
<text class="sym" x="713.0" y="555" text-anchor="middle">Sm</text>
<text class="name" x="713.0" y="572" text-anchor="middle">Sm</text>
<text class="mass" x="713.0" y="588" text-anchor="middle">62.0</text>
<rect x="760" y="510" width="86" height="86" fill="#baffc9" stroke="#333"/>
<text class="num" x="766" y="526">63</text>
<text class="sym" x="803.0" y="555" text-anchor="middle">Eu</text>
<text class="name" x="803.0" y="572" text-anchor="middle">Eu</text>
<text class="mass" x="803.0" y="588" text-anchor="middle">63.0</text>
<rect x="850" y="510" width="86" height="86" fill="#bae1ff" stroke="#333"/>
<text class="num" x="856" y="526">64</text>
<text class="sym" x="893.0" y="555" text-anchor="middle">Gd</text>
<text class="name" x="893.0" y="572" text-anchor="middle">Gd</text>
<text class="mass" x="893.0" y="588" text-anchor="middle">64.0</text>
<rect x="940" y="510" width="86" height="86" fill="#bae1ff" stroke="#333"/>
<text class="num" x="946" y="526">65</text>
<text class="sym" x="983.0" y="555" text-anchor="middle">Tb</text>
<text class="name" x="983.0" y="572" text-anchor="middle">Tb</text>
<text class="mass" x="983.0" y="588" text-anchor="middle">65.0</text>
<rect x="1030" y="510" width="86" height="86" fill="#d5baff" stroke="#333"/>
<text class="num" x="1036" y="526">66</text>
<text class="sym" x="1073.0" y="555" text-anchor="middle">Dy</text>
<text class="name" x="1073.0" y="572" text-anchor="middle">Dy</text>
<text class="mass" x="1073.0" y="588" text-anchor="middle">66.0</text>
<rect x="1120" y="510" width="86" height="86" fill="#c9c9ff" stroke="#333"/>
<text class="num" x="1126" y="526">67</text>
<text class="sym" x="1163.0" y="555" text-anchor="middle">Ho</text>
<text class="name" x="1163.0" y="572" text-anchor="middle">Ho</text>
<text class="mass" x="1163.0" y="588" text-anchor="middle">67.0</text>
<rect x="1210" y="510" width="86" height="86" fill="#ffd6ff" stroke="#333"/>
<text class="num" x="1216" y="526">68</text>
<text class="sym" x="1253.0" y="555" text-anchor="middle">Er</text>
<text class="name" x="1253.0" y="572" text-anchor="middle">Er</text>
<text class="mass" x="1253.0" y="588" text-anchor="middle">68.0</text>
<rect x="1300" y="510" width="86" height="86" fill="#ffffba" stroke="#333"/>
<text class="num" x="1306" y="526">69</text>
<text class="sym" x="1343.0" y="555" text-anchor="middle">Tm</text>
<text class="name" x="1343.0" y="572" text-anchor="middle">Tm</text>
<text class="mass" x="1343.0" y="588" text-anchor="middle">69.0</text>
<rect x="1390" y="510" width="86" height="86" fill="#ffffba" stroke="#333"/>
<text class="num" x="1396" y="526">70</text>
<text class="sym" x="1433.0" y="555" text-anchor="middle">Yb</text>
<text class="name" x="1433.0" y="572" text-anchor="middle">Yb</text>
<text class="mass" x="1433.0" y="588" text-anchor="middle">70.0</text>
<rect x="1480" y="510" width="86" height="86" fill="#ffffba" stroke="#333"/>
<text class="num" x="1486" y="526">71</text>
<text class="sym" x="1523.0" y="555" text-anchor="middle">Lu</text>
<text class="name" x="1523.0" y="572" text-anchor="middle">Lu</text>
<text class="mass" x="1523.0" y="588" text-anchor="middle">71.0</text>
<rect x="1570" y="510" width="86" height="86" fill="#ffffba" stroke="#333"/>
<text class="num" x="1576" y="526">72</text>
<text class="sym" x="1613.0" y="555" text-anchor="middle">Hf</text>
<text class="name" x="1613.0" y="572" text-anchor="middle">Hf</text>
<text class="mass" x="1613.0" y="588" text-anchor="middle">72.0</text>
<rect x="40" y="600" width="86" height="86" fill="#ffffba" stroke="#333"/>
<text class="num" x="46" y="616">73</text>
<text class="sym" x="83.0" y="645" text-anchor="middle">Ta</text>
<text class="name" x="83.0" y="662" text-anchor="middle">Ta</text>
<text class="mass" x="83.0" y="678" text-anchor="middle">73.0</text>
<rect x="130" y="600" width="86" height="86" fill="#ffffba" stroke="#333"/>
<text class="num" x="136" y="616">74</text>
<text class="sym" x="173.0" y="645" text-anchor="middle">W</text>
<text class="name" x="173.0" y="662" text-anchor="middle">W</text>
<text class="mass" x="173.0" y="678" text-anchor="middle">74.0</text>
<rect x="220" y="600" width="86" height="86" fill="#ffffba" stroke="#333"/>
<text class="num" x="226" y="616">75</text>
<text class="sym" x="263.0" y="645" text-anchor="middle">Re</text>
<text class="name" x="263.0" y="662" text-anchor="middle">Re</text>
<text class="mass" x="263.0" y="678" text-anchor="middle">75.0</text>
<rect x="310" y="600" width="86" height="86" fill="#ffffba" stroke="#333"/>
<text class="num" x="316" y="616">76</text>
<text class="sym" x="353.0" y="645" text-anchor="middle">Os</text>
<text class="name" x="353.0" y="662" text-anchor="middle">Os</text>
<text class="mass" x="353.0" y="678" text-anchor="middle">76.0</text>
<rect x="400" y="600" width="86" height="86" fill="#ffffba" stroke="#333"/>
<text class="num" x="406" y="616">77</text>
<text class="sym" x="443.0" y="645" text-anchor="middle">Ir</text>
<text class="name" x="443.0" y="662" text-anchor="middle">Ir</text>
<text class="mass" x="443.0" y="678" text-anchor="middle">77.0</text>
<rect x="490" y="600" width="86" height="86" fill="#ffffba" stroke="#333"/>
<text class="num" x="496" y="616">78</text>
<text class="sym" x="533.0" y="645" text-anchor="middle">Pt</text>
<text class="name" x="533.0" y="662" text-anchor="middle">Pt</text>
<text class="mass" x="533.0" y="678" text-anchor="middle">78.0</text>
<rect x="580" y="600" width="86" height="86" fill="#baffc9" stroke="#333"/>
<text class="num" x="586" y="616">79</text>
<text class="sym" x="623.0" y="645" text-anchor="middle">Au</text>
<text class="name" x="623.0" y="662" text-anchor="middle">Au</text>
<text class="mass" x="623.0" y="678" text-anchor="middle">79.0</text>
<rect x="670" y="600" width="86" height="86" fill="#bae1ff" stroke="#333"/>
<text class="num" x="676" y="616">80</text>
<text class="sym" x="713.0" y="645" text-anchor="middle">Hg</text>
<text class="name" x="713.0" y="662" text-anchor="middle">Hg</text>
<text class="mass" x="713.0" y="678" text-anchor="middle">80.0</text>
<rect x="760" y="600" width="86" height="86" fill="#bae1ff" stroke="#333"/>
<text class="num" x="766" y="616">81</text>
<text class="sym" x="803.0" y="645" text-anchor="middle">Tl</text>
<text class="name" x="803.0" y="662" text-anchor="middle">Tl</text>
<text class="mass" x="803.0" y="678" text-anchor="middle">81.0</text>
<rect x="850" y="600" width="86" height="86" fill="#d5baff" stroke="#333"/>
<text class="num" x="856" y="616">82</text>
<text class="sym" x="893.0" y="645" text-anchor="middle">Pb</text>
<text class="name" x="893.0" y="662" text-anchor="middle">Pb</text>
<text class="mass" x="893.0" y="678" text-anchor="middle">82.0</text>
<rect x="940" y="600" width="86" height="86" fill="#c9c9ff" stroke="#333"/>
<text class="num" x="946" y="616">83</text>
<text class="sym" x="983.0" y="645" text-anchor="middle">Bi</text>
<text class="name" x="983.0" y="662" text-anchor="middle">Bi</text>
<text class="mass" x="983.0" y="678" text-anchor="middle">83.0</text>
<rect x="1030" y="600" width="86" height="86" fill="#ffd6ff" stroke="#333"/>
<text class="num" x="1036" y="616">84</text>
<text class="sym" x="1073.0" y="645" text-anchor="middle">Po</text>
<text class="name" x="1073.0" y="662" text-anchor="middle">Po</text>
<text class="mass" x="1073.0" y="678" text-anchor="middle">84.0</text>
<rect x="1120" y="600" width="86" height="86" fill="#ffffba" stroke="#333"/>
<text class="num" x="1126" y="616">85</text>
<text class="sym" x="1163.0" y="645" text-anchor="middle">At</text>
<text class="name" x="1163.0" y="662" text-anchor="middle">At</text>
<text class="mass" x="1163.0" y="678" text-anchor="middle">85.0</text>
<rect x="1210" y="600" width="86" height="86" fill="#ffffba" stroke="#333"/>
<text class="num" x="1216" y="616">86</text>
<text class="sym" x="1253.0" y="645" text-anchor="middle">Rn</text>
<text class="name" x="1253.0" y="662" text-anchor="middle">Rn</text>
<text class="mass" x="1253.0" y="678" text-anchor="middle">86.0</text>
<rect x="1300" y="600" width="86" height="86" fill="#ffffba" stroke="#333"/>
<text class="num" x="1306" y="616">87</text>
<text class="sym" x="1343.0" y="645" text-anchor="middle">Fr</text>
<text class="name" x="1343.0" y="662" text-anchor="middle">Fr</text>
<text class="mass" x="1343.0" y="678" text-anchor="middle">87.0</text>
<rect x="1390" y="600" width="86" height="86" fill="#ffffba" stroke="#333"/>
<text class="num" x="1396" y="616">88</text>
<text class="sym" x="1433.0" y="645" text-anchor="middle">Ra</text>
<text class="name" x="1433.0" y="662" text-anchor="middle">Ra</text>
<text class="mass" x="1433.0" y="678" text-anchor="middle">88.0</text>
<rect x="1480" y="600" width="86" height="86" fill="#ffffba" stroke="#333"/>
<text class="num" x="1486" y="616">89</text>
<text class="sym" x="1523.0" y="645" text-anchor="middle">Ac</text>
<text class="name" x="1523.0" y="662" text-anchor="middle">Ac</text>
<text class="mass" x="1523.0" y="678" text-anchor="middle">89.0</text>
<rect x="1570" y="600" width="86" height="86" fill="#ffffba" stroke="#333"/>
<text class="num" x="1576" y="616">90</text>
<text class="sym" x="1613.0" y="645" text-anchor="middle">Th</text>
<text class="name" x="1613.0" y="662" text-anchor="middle">Th</text>
<text class="mass" x="1613.0" y="678" text-anchor="middle">90.0</text>
<rect x="40" y="690" width="86" height="86" fill="#ffffba" stroke="#333"/>
<text class="num" x="46" y="706">91</text>
<text class="sym" x="83.0" y="735" text-anchor="middle">Pa</text>
<text class="name" x="83.0" y="752" text-anchor="middle">Pa</text>
<text class="mass" x="83.0" y="768" text-anchor="middle">91.0</text>
<rect x="130" y="690" width="86" height="86" fill="#ffffba" stroke="#333"/>
<text class="num" x="136" y="706">92</text>
<text class="sym" x="173.0" y="735" text-anchor="middle">U</text>
<text class="name" x="173.0" y="752" text-anchor="middle">U</text>
<text class="mass" x="173.0" y="768" text-anchor="middle">92.0</text>
<rect x="220" y="690" width="86" height="86" fill="#ffffba" stroke="#333"/>
<text class="num" x="226" y="706">93</text>
<text class="sym" x="263.0" y="735" text-anchor="middle">Np</text>
<text class="name" x="263.0" y="752" text-anchor="middle">Np</text>
<text class="mass" x="263.0" y="768" text-anchor="middle">93.0</text>
<rect x="310" y="690" width="86" height="86" fill="#ffffba" stroke="#333"/>
<text class="num" x="316" y="706">94</text>
<text class="sym" x="353.0" y="735" text-anchor="middle">Pu</text>
<text class="name" x="353.0" y="752" text-anchor="middle">Pu</text>
<text class="mass" x="353.0" y="768" text-anchor="middle">94.0</text>
<rect x="400" y="690" width="86" height="86" fill="#baffc9" stroke="#333"/>
<text class="num" x="406" y="706">95</text>
<text class="sym" x="443.0" y="735" text-anchor="middle">Am</text>
<text class="name" x="443.0" y="752" text-anchor="middle">Am</text>
<text class="mass" x="443.0" y="768" text-anchor="middle">95.0</text>
<rect x="490" y="690" width="86" height="86" fill="#bae1ff" stroke="#333"/>
<text class="num" x="496" y="706">96</text>
<text class="sym" x="533.0" y="735" text-anchor="middle">Cm</text>
<text class="name" x="533.0" y="752" text-anchor="middle">Cm</text>
<text class="mass" x="533.0" y="768" text-anchor="middle">96.0</text>
<rect x="580" y="690" width="86" height="86" fill="#bae1ff" stroke="#333"/>
<text class="num" x="586" y="706">97</text>
<text class="sym" x="623.0" y="735" text-anchor="middle">Bk</text>
<text class="name" x="623.0" y="752" text-anchor="middle">Bk</text>
<text class="mass" x="623.0" y="768" text-anchor="middle">97.0</text>
<rect x="670" y="690" width="86" height="86" fill="#d5baff" stroke="#333"/>
<text class="num" x="676" y="706">98</text>
<text class="sym" x="713.0" y="735" text-anchor="middle">Cf</text>
<text class="name" x="713.0" y="752" text-anchor="middle">Cf</text>
<text class="mass" x="713.0" y="768" text-anchor="middle">98.0</text>
<rect x="760" y="690" width="86" height="86" fill="#c9c9ff" stroke="#333"/>
<text class="num" x="766" y="706">99</text>
<text class="sym" x="803.0" y="735" text-anchor="middle">Es</text>
<text class="name" x="803.0" y="752" text-anchor="middle">Es</text>
<text class="mass" x="803.0" y="768" text-anchor="middle">99.0</text>
<rect x="850" y="690" width="86" height="86" fill="#ffd6ff" stroke="#333"/>
<text class="num" x="856" y="706">100</text>
<text class="sym" x="893.0" y="735" text-anchor="middle">Fm</text>
<text class="name" x="893.0" y="752" text-anchor="middle">Fm</text>
<text class="mass" x="893.0" y="768" text-anchor="middle">100.0</text>
<rect x="940" y="690" width="86" height="86" fill="#ffffba" stroke="#333"/>
<text class="num" x="946" y="706">101</text>
<text class="sym" x="983.0" y="735" text-anchor="middle">Md</text>
<text class="name" x="983.0" y="752" text-anchor="middle">Md</text>
<text class="mass" x="983.0" y="768" text-anchor="middle">101.0</text>
<rect x="1030" y="690" width="86" height="86" fill="#ffffba" stroke="#333"/>
<text class="num" x="1036" y="706">102</text>
<text class="sym" x="1073.0" y="735" text-anchor="middle">No</text>
<text class="name" x="1073.0" y="752" text-anchor="middle">No</text>
<text class="mass" x="1073.0" y="768" text-anchor="middle">102.0</text>
<rect x="1120" y="690" width="86" height="86" fill="#ffffba" stroke="#333"/>
<text class="num" x="1126" y="706">103</text>
<text class="sym" x="1163.0" y="735" text-anchor="middle">Lr</text>
<text class="name" x="1163.0" y="752" text-anchor="middle">Lr</text>
<text class="mass" x="1163.0" y="768" text-anchor="middle">103.0</text>
<rect x="1210" y="690" width="86" height="86" fill="#ffffba" stroke="#333"/>
<text class="num" x="1216" y="706">104</text>
<text class="sym" x="1253.0" y="735" text-anchor="middle">Rf</text>
<text class="name" x="1253.0" y="752" text-anchor="middle">Rf</text>
<text class="mass" x="1253.0" y="768" text-anchor="middle">104.0</text>
<rect x="1300" y="690" width="86" height="86" fill="#ffffba" stroke="#333"/>
<text class="num" x="1306" y="706">105</text>
<text class="sym" x="1343.0" y="735" text-anchor="middle">Db</text>
<text class="name" x="1343.0" y="752" text-anchor="middle">Db</text>
<text class="mass" x="1343.0" y="768" text-anchor="middle">105.0</text>
<rect x="1390" y="690" width="86" height="86" fill="#ffffba" stroke="#333"/>
<text class="num" x="1396" y="706">106</text>
<text class="sym" x="1433.0" y="735" text-anchor="middle">Sg</text>
<text class="name" x="1433.0" y="752" text-anchor="middle">Sg</text>
<text class="mass" x="1433.0" y="768" text-anchor="middle">106.0</text>
<rect x="1480" y="690" width="86" height="86" fill="#ffffba" stroke="#333"/>
<text class="num" x="1486" y="706">107</text>
<text class="sym" x="1523.0" y="735" text-anchor="middle">Bh</text>
<text class="name" x="1523.0" y="752" text-anchor="middle">Bh</text>
<text class="mass" x="1523.0" y="768" text-anchor="middle">107.0</text>
<rect x="1570" y="690" width="86" height="86" fill="#ffffba" stroke="#333"/>
<text class="num" x="1576" y="706">108</text>
<text class="sym" x="1613.0" y="735" text-anchor="middle">Hs</text>
<text class="name" x="1613.0" y="752" text-anchor="middle">Hs</text>
<text class="mass" x="1613.0" y="768" text-anchor="middle">108.0</text>
<rect x="40" y="780" width="86" height="86" fill="#ffffba" stroke="#333"/>
<text class="num" x="46" y="796">109</text>
<text class="sym" x="83.0" y="825" text-anchor="middle">Mt</text>
<text class="name" x="83.0" y="842" text-anchor="middle">Mt</text>
<text class="mass" x="83.0" y="858" text-anchor="middle">109.0</text>
<rect x="130" y="780" width="86" height="86" fill="#ffffba" stroke="#333"/>
<text class="num" x="136" y="796">110</text>
<text class="sym" x="173.0" y="825" text-anchor="middle">Ds</text>
<text class="name" x="173.0" y="842" text-anchor="middle">Ds</text>
<text class="mass" x="173.0" y="858" text-anchor="middle">110.0</text>
<rect x="220" y="780" width="86" height="86" fill="#baffc9" stroke="#333"/>
<text class="num" x="226" y="796">111</text>
<text class="sym" x="263.0" y="825" text-anchor="middle">Rg</text>
<text class="name" x="263.0" y="842" text-anchor="middle">Rg</text>
<text class="mass" x="263.0" y="858" text-anchor="middle">111.0</text>
<rect x="310" y="780" width="86" height="86" fill="#bae1ff" stroke="#333"/>
<text class="num" x="316" y="796">112</text>
<text class="sym" x="353.0" y="825" text-anchor="middle">Cn</text>
<text class="name" x="353.0" y="842" text-anchor="middle">Cn</text>
<text class="mass" x="353.0" y="858" text-anchor="middle">112.0</text>
<rect x="400" y="780" width="86" height="86" fill="#bae1ff" stroke="#333"/>
<text class="num" x="406" y="796">113</text>
<text class="sym" x="443.0" y="825" text-anchor="middle">Nh</text>
<text class="name" x="443.0" y="842" text-anchor="middle">Nh</text>
<text class="mass" x="443.0" y="858" text-anchor="middle">113.0</text>
<rect x="490" y="780" width="86" height="86" fill="#d5baff" stroke="#333"/>
<text class="num" x="496" y="796">114</text>
<text class="sym" x="533.0" y="825" text-anchor="middle">Fl</text>
<text class="name" x="533.0" y="842" text-anchor="middle">Fl</text>
<text class="mass" x="533.0" y="858" text-anchor="middle">114.0</text>
<rect x="580" y="780" width="86" height="86" fill="#c9c9ff" stroke="#333"/>
<text class="num" x="586" y="796">115</text>
<text class="sym" x="623.0" y="825" text-anchor="middle">Mc</text>
<text class="name" x="623.0" y="842" text-anchor="middle">Mc</text>
<text class="mass" x="623.0" y="858" text-anchor="middle">115.0</text>
<rect x="670" y="780" width="86" height="86" fill="#ffd6ff" stroke="#333"/>
<text class="num" x="676" y="796">116</text>
<text class="sym" x="713.0" y="825" text-anchor="middle">Lv</text>
<text class="name" x="713.0" y="842" text-anchor="middle">Lv</text>
<text class="mass" x="713.0" y="858" text-anchor="middle">116.0</text>
<rect x="760" y="780" width="86" height="86" fill="#ffffba" stroke="#333"/>
<text class="num" x="766" y="796">117</text>
<text class="sym" x="803.0" y="825" text-anchor="middle">Ts</text>
<text class="name" x="803.0" y="842" text-anchor="middle">Ts</text>
<text class="mass" x="803.0" y="858" text-anchor="middle">117.0</text>
<rect x="850" y="780" width="86" height="86" fill="#ffffba" stroke="#333"/>
<text class="num" x="856" y="796">118</text>
<text class="sym" x="893.0" y="825" text-anchor="middle">Og</text>
<text class="name" x="893.0" y="842" text-anchor="middle">Og</text>
<text class="mass" x="893.0" y="858" text-anchor="middle">118.0</text>
</svg>